# xmcd
#
# Track frame offsets: 
#        150
#        22075
#        53389
#        85812
#        104780
#        122132
#        147910
#        164152
#
# Disc length: 2445 seconds
#
# Revision: 1
# Processed by: cddbd v1.5.2PL0 Copyright (c) Steve Scherf et al.
# Submitted via: ExactAudioCopyFreeDBPlugin 1.0
#
DISCID=6f098b08
DTITLE=Maciej Sikała, Ryszard Tymon Tymanski, Jacek Olter - blue desti
DTITLE=nations
DYEAR=1997
DGENRE=Jazz
TTITLE0=Blues for Piotr
TTITLE1=The Saint Saxophonist
TTITLE2=Blues For Jacek
TTITLE3=Semi-God Ro-Ro's Rejoicings
TTITLE4=Tantra
TTITLE5=Round "N" Round Mr. M
TTITLE6=The Cyclist
TTITLE7=E Minor Mood
EXTD=YEAR: 1997
EXTT0=
EXTT1=
EXTT2=
EXTT3=
EXTT4=
EXTT5=
EXTT6=
EXTT7=
PLAYORDER=
